<?xml version="1.0" encoding="UTF-8"?>
<svg version="1.1" xmlns="http://www.w3.org/2000/svg" width="119" height="24">
<path d="M0,0 L5,0 L5,2 L4,2 L4,19 L1,19 L1,4 L0,4 Z " fill="#000000" transform="translate(86,0)"/>
<path d="M0,0 L4,0 L4,19 L0,19 Z " fill="#000000" transform="translate(92,0)"/>
<path d="M0,0 L8,0 L8,7 L0,7 Z " fill="#000000" transform="translate(7,5)"/>
<path d="M0,0 L4,0 L4,1 L6,1 L6,0 L11,0 L11,1 L12,1 L12,2 L13,2 L13,3 L14,3 L14,11 L13,11 L13,13 L12,13 L12,14 L9,14 L9,15 L6,15 L6,14 L5,14 L5,13 L4,13 L4,19 L0,19 Z M5,3 L5,4 L4,4 L4,10 L5,10 L5,11 L6,11 L6,12 L8,12 L8,11 L9,11 L9,10 L10,10 L10,4 L9,4 L9,3 Z " fill="#000000" transform="translate(18,5)"/>
<path d="M0,0 L4,0 L4,1 L5,1 L5,0 L9,0 L9,3 L8,3 L8,4 L5,4 L5,5 L4,5 L4,14 L0,14 Z " fill="#000000" transform="translate(33,5)"/>
<path d="M0,0 L8,0 L8,1 L9,1 L9,2 L10,2 L10,4 L11,4 L11,11 L10,11 L10,12 L9,12 L9,13 L8,13 L8,14 L6,14 L6,15 L2,15 L2,14 L-1,14 L-1,13 L-2,13 L-2,12 L-3,12 L-3,8 L-4,8 L-4,6 L-3,6 L-3,3 L-2,3 L-2,1 L0,1 Z M2,3 L2,4 L1,4 L1,6 L0,6 L0,9 L1,9 L1,11 L3,11 L3,12 L5,12 L5,11 L6,11 L6,10 L7,10 L7,4 L6,4 L6,3 Z " fill="#000000" transform="translate(45,5)"/>
<path d="M0,0 L4,0 L4,1 L5,1 L5,0 L11,0 L11,1 L12,1 L12,2 L13,2 L13,4 L14,4 L14,10 L13,10 L13,12 L12,12 L12,13 L11,13 L11,14 L9,14 L9,15 L6,15 L6,14 L5,14 L5,13 L4,13 L4,19 L0,19 Z M5,3 L5,4 L4,4 L4,11 L6,11 L6,12 L8,12 L8,11 L9,11 L9,10 L10,10 L10,5 L9,5 L9,3 Z " fill="#000000" transform="translate(57,5)"/>
<path d="M0,0 L7,0 L7,1 L9,1 L9,3 L10,3 L10,7 L11,7 L11,8 L1,8 L1,11 L2,11 L2,12 L5,12 L5,11 L6,11 L6,10 L10,10 L10,12 L9,12 L9,13 L8,13 L8,14 L6,14 L6,15 L2,15 L2,14 L0,14 L0,13 L-2,13 L-2,11 L-3,11 L-3,4 L-2,4 L-2,2 L-1,2 L-1,1 L0,1 Z M2,3 L2,4 L1,4 L1,6 L6,6 L6,3 Z " fill="#000000" transform="translate(75,5)"/>
<path d="M0,0 L6,0 L6,1 L8,1 L8,3 L9,3 L9,6 L10,6 L10,8 L0,8 L0,11 L1,11 L1,12 L4,12 L4,11 L5,11 L5,10 L9,10 L9,12 L8,12 L8,13 L7,13 L7,14 L5,14 L5,15 L1,15 L1,14 L-1,14 L-1,13 L-3,13 L-3,11 L-4,11 L-4,4 L-3,4 L-3,2 L-2,2 L-2,1 L0,1 Z M1,3 L1,4 L0,4 L0,6 L5,6 L5,3 Z " fill="#000000" transform="translate(101,5)"/>
<path d="M0,0 L3,0 L3,2 L4,2 L4,1 L5,1 L5,0 L7,0 L7,4 L4,4 L4,6 L3,6 L3,15 L0,15 Z " fill="#000000" transform="translate(112,5)"/>
<path d="M0,0 L7,0 L7,7 L0,7 Z " fill="#000000" transform="translate(0,12)"/>
</svg>
